<svg xmlns="http://www.w3.org/2000/svg" viewBox="0 0 564.1 323.45"><title>congress</title><g id="Layer_2" data-name="Layer 2"><g id="Layer_3" data-name="Layer 3"><path d="M307.59,89.17l.2-18.38c16.49-7.2,5.81-13.37,5.81-13.37l-12.72-3.8a14.31,14.31,0,0,1-7.28-4.49l-5-6.53a3.53,3.53,0,0,1-.77-1.84c-.31-3.42-1.13-14.69,1.41-14.75,5.06-.13,3.37-10.33.48-10.12S282.05,0,282.05,0s-4.77,16.11-7.66,15.89-4.57,10,.48,10.12c2.55.06,1.73,11.33,1.42,14.75a3.53,3.53,0,0,1-.77,1.84l-5,6.53a14.24,14.24,0,0,1-7.27,4.49l-12.73,3.8s-10.67,6.17,5.82,13.37l.2,18.38S161.79,108.74,150.91,172c0,0,31.86-11.06,131.14-14.87C381.33,161,413.19,172,413.19,172,402.3,108.74,307.59,89.17,307.59,89.17Z" style="fill:#437dff"/><path d="M282.05,166s-159.2,3-170.31,35.66c0,0-1.91,7.14,6.69,7.42l.47,28.53s-60.81,9.15-54,29.1c0,0,2.87,7.42,8.12,7.71l.48,30.81S1.43,318.6,0,323.45H564.1c-1.43-4.85-73.54-18.26-73.54-18.26l.48-30.81c5.25-.29,8.12-7.71,8.12-7.71,6.85-20-54-29.1-54-29.1l.47-28.53c8.6-.28,6.69-7.42,6.69-7.42C441.25,168.94,282.05,166,282.05,166M116.27,298.76H95.5V275.15s2.69-3.84,10.38-3.84,10.39,3.84,10.39,3.84Zm17.42-88.64s2.07-3.36,8-3.36,8,3.36,8,3.36V230.8h-16Zm23.76,83H133.69v-27.7s3.08-4.5,11.88-4.5,11.88,4.5,11.88,4.5Zm7.86-90.79s2.19-3.73,8.46-3.73,8.47,3.73,8.47,3.73v23H165.31Zm36.93,85.05H178.48V255.74s3.08-5.15,11.88-5.15,11.88,5.15,11.88,5.15ZM217,221.71H200.08V196.37s2.2-4.12,8.47-4.12,8.46,4.12,8.46,4.12Zm29.73,65H223V253.32s3.08-5.42,11.88-5.42,11.88,5.42,11.88,5.42ZM255,220.29H234.86V193.6s2.61-4.34,10.06-4.34S255,193.6,255,193.6Zm15.94-28.74s2.88-4.54,11.14-4.54,11.14,4.54,11.14,4.54v28H270.91Zm23,94.54H270.17V251.53s3.08-5.61,11.88-5.61,11.88,5.61,11.88,5.61Zm15.2-92.49s2.6-4.34,10.05-4.34,10.06,4.34,10.06,4.34v26.69H309.13Zm32,93.15H317.36V253.32s3.08-5.42,11.88-5.42,11.88,5.42,11.88,5.42Zm6-90.38s2.19-4.12,8.46-4.12,8.47,4.12,8.47,4.12v25.34H347.09Zm38.53,91H361.86V255.74s3.08-5.15,11.88-5.15,11.88,5.15,11.88,5.15Zm13.17-62.09H381.86v-23s2.2-3.73,8.47-3.73,8.46,3.73,8.46,3.73Zm31.62,67.83H406.65v-27.7s3.08-4.5,11.88-4.5,11.88,4.5,11.88,4.5Zm0-62.35h-16V210.12s2.07-3.36,8-3.36,8,3.36,8,3.36Zm38.19,68H447.83V275.15s2.69-3.84,10.39-3.84,10.38,3.84,10.38,3.84Z" style="fill:#f24c55"/></g></g></svg>