<svg xmlns="http://www.w3.org/2000/svg" viewBox="0 0 28.77 28.39"><title>democrat</title><g id="Layer_2" data-name="Layer 2"><g id="Layer_1-2" data-name="Layer 1"><path d="M8.46,19.15s-1.18-5.92-2.29-6.88S4.8,11,4.1,12s-2.46,1.3-3,.88S-.28,12.5.08,11.38s-.15-.9.84-2.59A10.22,10.22,0,0,1,1,6.67c.15-.1.45-1.32.7-1.51S.6,4.11.53,2.94.83.63,1.14.61s.42-.09.57.55a5.2,5.2,0,0,0,1.23,2.1s.18.4.52-.26a2.94,2.94,0,0,1,.17-1.6C4,.76,4.23-.1,4.46,0A3.84,3.84,0,0,1,5.53,2.58c0,1.27-.11,1.42.26,1.5s3.8,1.31,4.55,2.44a5.57,5.57,0,0,0,2.45,1.76c.13.06,3.1.06,3.1.06s5.77-2.12,6.77-2.07a7.48,7.48,0,0,1,2.65,1.11A8.67,8.67,0,0,1,27,10.09a21,21,0,0,1-.43,4.17s-.64,1.23.85,2.77a2.91,2.91,0,0,0,1,1.07c.64.32.11,2.24-.11,2.2s-.55-1.35-.79-1.49c0,0-.05,0,0-.44s-1.25-1.64-1.51-1.62S26,18.16,26,18.16a15.08,15.08,0,0,0,.74,3.08,1.7,1.7,0,0,1-.45,1.58s-.09,3.28-.15,3.28-1.11,2-1.4,2a2.13,2.13,0,0,1-2.61-.41A18.62,18.62,0,0,1,23.63,26a5.6,5.6,0,0,1,.51-2.44l-.07-3.06s-1.13-2.71-1.62-2.44.4,1.7.4,1.7,0,.76-.47,1a9.36,9.36,0,0,0-1.63,1.63l0,1.63s-1.08,1.33-1.18,1.54-1.1,1.63-1.1,1.63-2.15.36-2.27-.59l2.68-4.05a9.66,9.66,0,0,1,.44-1.4c.16-.3-1.17-3.44-1.74-3.53s-4.15.73-5.08.48a6.78,6.78,0,0,0-1.09,2,5.65,5.65,0,0,0-.29,2.38c.16.58.5,1.44.52,1.69s1.09.9,1.09.9.2.14-.16.39A20.4,20.4,0,0,0,10.9,27.3s-.52-.36-.66-.3-.2-.16-.34.77c0,0,.21.48-3.12.18a2.2,2.2,0,0,1,.74-1.79s.66-.92.57-1,.32-2.25.52-2.13A14.15,14.15,0,0,0,8.46,19.15Z" style="fill:#437dff"/></g></g></svg>