<svg xmlns="http://www.w3.org/2000/svg" viewBox="0 0 23.19 20.45"><title>republican</title><g id="Layer_2" data-name="Layer 2"><g id="Layer_1-2" data-name="Layer 1"><path d="M5.35,15.82s-.5-.08-.47.65,0,2.77,0,2.77,0,.87-.62.87H.57s-.48,0-.54-.69S0,9.58,0,9.58V7.5S-.5,2.19,4.32.78a21.23,21.23,0,0,1,11.45,0,5.83,5.83,0,0,1,3.71,4,9.55,9.55,0,0,1,.35,2.9V17.5a.47.47,0,0,0,.62.51c.65-.15.58-1,.52-1.74s1.23-.24,1.47-.44c0,0,.73-.16.73.44a4.09,4.09,0,0,1-2.1,4.08s-2.43.64-3.36-1.29A5,5,0,0,1,17,16.17s-.38-2.13-1.14-1.58v4.73a.7.7,0,0,1-.73.75H11.59s-.44,0-.44-.87V16.25s0-.57-.88-.45S5.35,15.82,5.35,15.82Z" style="fill:#f24c55"/></g></g></svg>